<mxfile host="app.diagrams.net" modified="2023-11-05T19:21:34.835Z" agent="Mozilla/5.0 (Windows NT 10.0; Win64; x64) AppleWebKit/537.36 (KHTML, like Gecko) Chrome/119.0.0.0 Safari/537.36 Edg/119.0.0.0" etag="ypO5mpoLLCsX8gyKGVx0" version="21.6.9" type="github">
  <diagram id="HLWjeGLK8E62nagD_4CA" name="Page-1">
    <mxGraphModel dx="2316" dy="813" grid="1" gridSize="10" guides="1" tooltips="1" connect="1" arrows="1" fold="1" page="1" pageScale="1" pageWidth="827" pageHeight="1169" math="0" shadow="0">
      <root>
        <mxCell id="0" />
        <mxCell id="1" parent="0" />
        <mxCell id="EYEnycelfZiuUGJGCS-H-1" value="" style="rounded=1;whiteSpace=wrap;html=1;fontFamily=Times New Roman;fontSize=16;" parent="1" vertex="1">
          <mxGeometry x="810" width="430" height="940" as="geometry" />
        </mxCell>
        <mxCell id="s36QY2iIZomX1g9JRoiT-18" value="" style="rounded=1;whiteSpace=wrap;html=1;dashed=1;fontFamily=Times New Roman;fontSize=16;" parent="1" vertex="1">
          <mxGeometry x="370" width="430" height="940" as="geometry" />
        </mxCell>
        <mxCell id="s36QY2iIZomX1g9JRoiT-2" value="" style="rounded=1;whiteSpace=wrap;html=1;dashed=1;fillColor=#CCCCCC;fontFamily=Times New Roman;fontSize=16;" parent="1" vertex="1">
          <mxGeometry x="-80" width="440" height="940" as="geometry" />
        </mxCell>
        <mxCell id="3VRAeIj3tUrWjSmLoF6Z-6" style="edgeStyle=orthogonalEdgeStyle;rounded=0;orthogonalLoop=1;jettySize=auto;html=1;entryX=0.25;entryY=0;entryDx=0;entryDy=0;exitX=0.5;exitY=0;exitDx=0;exitDy=0;fontFamily=Times New Roman;fontSize=16;" parent="1" source="3VRAeIj3tUrWjSmLoF6Z-4" target="3VRAeIj3tUrWjSmLoF6Z-5" edge="1">
          <mxGeometry relative="1" as="geometry">
            <Array as="points">
              <mxPoint x="-7" y="10" />
              <mxPoint x="75" y="10" />
            </Array>
          </mxGeometry>
        </mxCell>
        <mxCell id="3VRAeIj3tUrWjSmLoF6Z-4" value="Precipitación &lt;br style=&quot;font-size: 16px;&quot;&gt;CHIRPS" style="shape=parallelogram;perimeter=parallelogramPerimeter;whiteSpace=wrap;html=1;fixedSize=1;fillColor=#E6E6E6;fontFamily=Times New Roman;fontSize=16;" parent="1" vertex="1">
          <mxGeometry x="-70" y="23" width="125" height="60" as="geometry" />
        </mxCell>
        <mxCell id="3VRAeIj3tUrWjSmLoF6Z-10" style="edgeStyle=orthogonalEdgeStyle;rounded=0;orthogonalLoop=1;jettySize=auto;html=1;entryX=0.5;entryY=0;entryDx=0;entryDy=0;fontFamily=Times New Roman;fontSize=16;" parent="1" source="3VRAeIj3tUrWjSmLoF6Z-5" target="3VRAeIj3tUrWjSmLoF6Z-9" edge="1">
          <mxGeometry relative="1" as="geometry" />
        </mxCell>
        <mxCell id="3VRAeIj3tUrWjSmLoF6Z-5" value="Extracción puntual de datos de precipitación" style="rounded=0;whiteSpace=wrap;html=1;fontFamily=Times New Roman;fontSize=16;" parent="1" vertex="1">
          <mxGeometry x="45" y="60" width="120" height="60" as="geometry" />
        </mxCell>
        <mxCell id="3VRAeIj3tUrWjSmLoF6Z-12" style="edgeStyle=orthogonalEdgeStyle;rounded=0;orthogonalLoop=1;jettySize=auto;html=1;entryX=0.5;entryY=0;entryDx=0;entryDy=0;fontFamily=Times New Roman;fontSize=16;" parent="1" source="3VRAeIj3tUrWjSmLoF6Z-9" target="3VRAeIj3tUrWjSmLoF6Z-11" edge="1">
          <mxGeometry relative="1" as="geometry" />
        </mxCell>
        <mxCell id="3VRAeIj3tUrWjSmLoF6Z-9" value="Obtención de la precipitación máxima anual por cada punto" style="rounded=0;whiteSpace=wrap;html=1;fontFamily=Times New Roman;fontSize=16;" parent="1" vertex="1">
          <mxGeometry x="32.5" y="155" width="145" height="70" as="geometry" />
        </mxCell>
        <mxCell id="3VRAeIj3tUrWjSmLoF6Z-14" style="edgeStyle=orthogonalEdgeStyle;rounded=0;orthogonalLoop=1;jettySize=auto;html=1;entryX=0.5;entryY=0;entryDx=0;entryDy=0;fontFamily=Times New Roman;fontSize=16;" parent="1" source="3VRAeIj3tUrWjSmLoF6Z-11" target="3VRAeIj3tUrWjSmLoF6Z-13" edge="1">
          <mxGeometry relative="1" as="geometry" />
        </mxCell>
        <mxCell id="3VRAeIj3tUrWjSmLoF6Z-11" value="Prueba de datos dudosos (Outlier)" style="rounded=0;whiteSpace=wrap;html=1;fontFamily=Times New Roman;fontSize=16;" parent="1" vertex="1">
          <mxGeometry x="45" y="250" width="120" height="60" as="geometry" />
        </mxCell>
        <mxCell id="3VRAeIj3tUrWjSmLoF6Z-17" value="" style="edgeStyle=orthogonalEdgeStyle;rounded=0;orthogonalLoop=1;jettySize=auto;html=1;fontFamily=Times New Roman;fontSize=16;" parent="1" source="3VRAeIj3tUrWjSmLoF6Z-13" target="3VRAeIj3tUrWjSmLoF6Z-16" edge="1">
          <mxGeometry relative="1" as="geometry" />
        </mxCell>
        <mxCell id="3VRAeIj3tUrWjSmLoF6Z-19" value="" style="edgeStyle=orthogonalEdgeStyle;rounded=0;orthogonalLoop=1;jettySize=auto;html=1;fontFamily=Times New Roman;fontSize=16;" parent="1" source="3VRAeIj3tUrWjSmLoF6Z-13" target="3VRAeIj3tUrWjSmLoF6Z-18" edge="1">
          <mxGeometry relative="1" as="geometry" />
        </mxCell>
        <mxCell id="3VRAeIj3tUrWjSmLoF6Z-13" value="¿Existe data dudosa?" style="rhombus;whiteSpace=wrap;html=1;fontFamily=Times New Roman;fontSize=16;" parent="1" vertex="1">
          <mxGeometry x="53.75" y="332.5" width="102.5" height="95" as="geometry" />
        </mxCell>
        <mxCell id="3VRAeIj3tUrWjSmLoF6Z-20" style="edgeStyle=orthogonalEdgeStyle;rounded=0;orthogonalLoop=1;jettySize=auto;html=1;entryX=1;entryY=0.5;entryDx=0;entryDy=0;exitX=0.5;exitY=1;exitDx=0;exitDy=0;fontFamily=Times New Roman;fontSize=16;" parent="1" source="3VRAeIj3tUrWjSmLoF6Z-16" target="3VRAeIj3tUrWjSmLoF6Z-18" edge="1">
          <mxGeometry relative="1" as="geometry" />
        </mxCell>
        <mxCell id="3VRAeIj3tUrWjSmLoF6Z-16" value="Borrar datos dudosos" style="whiteSpace=wrap;html=1;fontFamily=Times New Roman;fontSize=16;" parent="1" vertex="1">
          <mxGeometry x="205" y="350" width="120" height="60" as="geometry" />
        </mxCell>
        <mxCell id="K1i-vkmHz3E5f6IHQn4M-7" style="edgeStyle=orthogonalEdgeStyle;rounded=0;orthogonalLoop=1;jettySize=auto;html=1;exitX=0.5;exitY=1;exitDx=0;exitDy=0;fontFamily=Times New Roman;fontSize=16;" parent="1" source="3VRAeIj3tUrWjSmLoF6Z-18" target="K1i-vkmHz3E5f6IHQn4M-6" edge="1">
          <mxGeometry relative="1" as="geometry" />
        </mxCell>
        <mxCell id="3VRAeIj3tUrWjSmLoF6Z-18" value="Evaluación con las distintas&amp;nbsp; distribuciones de probabilidad" style="whiteSpace=wrap;html=1;fontFamily=Times New Roman;fontSize=16;" parent="1" vertex="1">
          <mxGeometry x="37.5" y="460" width="135" height="70" as="geometry" />
        </mxCell>
        <mxCell id="K1i-vkmHz3E5f6IHQn4M-11" style="edgeStyle=orthogonalEdgeStyle;rounded=0;orthogonalLoop=1;jettySize=auto;html=1;exitX=1;exitY=0.5;exitDx=0;exitDy=0;entryX=0;entryY=0.5;entryDx=0;entryDy=0;fontFamily=Times New Roman;fontSize=16;" parent="1" source="3VRAeIj3tUrWjSmLoF6Z-22" target="3VRAeIj3tUrWjSmLoF6Z-26" edge="1">
          <mxGeometry relative="1" as="geometry" />
        </mxCell>
        <mxCell id="3VRAeIj3tUrWjSmLoF6Z-22" value="Extrapolación a diferentes tiempos de retorno." style="rounded=0;whiteSpace=wrap;html=1;fontFamily=Times New Roman;fontSize=16;" parent="1" vertex="1">
          <mxGeometry x="-50" y="753.75" width="150" height="90" as="geometry" />
        </mxCell>
        <mxCell id="3VRAeIj3tUrWjSmLoF6Z-35" style="edgeStyle=orthogonalEdgeStyle;rounded=0;orthogonalLoop=1;jettySize=auto;html=1;entryX=0;entryY=0.5;entryDx=0;entryDy=0;exitX=1;exitY=0.5;exitDx=0;exitDy=0;fontFamily=Times New Roman;fontSize=16;" parent="1" source="3VRAeIj3tUrWjSmLoF6Z-23" target="3VRAeIj3tUrWjSmLoF6Z-34" edge="1">
          <mxGeometry relative="1" as="geometry" />
        </mxCell>
        <mxCell id="3VRAeIj3tUrWjSmLoF6Z-23" value="Elaboración de hietogramas con el método de bloques alternos para cada subcuenca y cada periodo de retorno" style="whiteSpace=wrap;html=1;rounded=0;fontFamily=Times New Roman;fontSize=16;" parent="1" vertex="1">
          <mxGeometry x="147.5" y="542" width="185" height="115" as="geometry" />
        </mxCell>
        <mxCell id="3VRAeIj3tUrWjSmLoF6Z-30" value="" style="edgeStyle=orthogonalEdgeStyle;rounded=0;orthogonalLoop=1;jettySize=auto;html=1;fontFamily=Times New Roman;fontSize=16;" parent="1" source="3VRAeIj3tUrWjSmLoF6Z-26" target="3VRAeIj3tUrWjSmLoF6Z-29" edge="1">
          <mxGeometry relative="1" as="geometry" />
        </mxCell>
        <mxCell id="s36QY2iIZomX1g9JRoiT-1" value="" style="edgeStyle=orthogonalEdgeStyle;rounded=0;orthogonalLoop=1;jettySize=auto;html=1;fontFamily=Times New Roman;fontSize=16;" parent="1" source="3VRAeIj3tUrWjSmLoF6Z-26" target="3VRAeIj3tUrWjSmLoF6Z-29" edge="1">
          <mxGeometry relative="1" as="geometry" />
        </mxCell>
        <mxCell id="3VRAeIj3tUrWjSmLoF6Z-26" value="Interpolación con IDW para cada periodo de retorno" style="whiteSpace=wrap;html=1;rounded=0;fontFamily=Times New Roman;fontSize=16;" parent="1" vertex="1">
          <mxGeometry x="170" y="830" width="140" height="75" as="geometry" />
        </mxCell>
        <mxCell id="3VRAeIj3tUrWjSmLoF6Z-31" style="edgeStyle=orthogonalEdgeStyle;rounded=0;orthogonalLoop=1;jettySize=auto;html=1;fontFamily=Times New Roman;fontSize=16;" parent="1" source="3VRAeIj3tUrWjSmLoF6Z-29" target="3VRAeIj3tUrWjSmLoF6Z-23" edge="1">
          <mxGeometry relative="1" as="geometry" />
        </mxCell>
        <mxCell id="3VRAeIj3tUrWjSmLoF6Z-29" value="Extracción del promedio de precipitación en la cuenca para cada periodo de retorno" style="whiteSpace=wrap;html=1;rounded=0;fontFamily=Times New Roman;fontSize=16;" parent="1" vertex="1">
          <mxGeometry x="160" y="700" width="160" height="100" as="geometry" />
        </mxCell>
        <mxCell id="3VRAeIj3tUrWjSmLoF6Z-32" value="Si" style="text;html=1;align=center;verticalAlign=middle;whiteSpace=wrap;rounded=0;fontFamily=Times New Roman;fontSize=16;" parent="1" vertex="1">
          <mxGeometry x="135" y="350" width="60" height="30" as="geometry" />
        </mxCell>
        <mxCell id="3VRAeIj3tUrWjSmLoF6Z-33" value="No" style="text;html=1;align=center;verticalAlign=middle;whiteSpace=wrap;rounded=0;fontFamily=Times New Roman;fontSize=16;" parent="1" vertex="1">
          <mxGeometry x="55" y="420" width="60" height="30" as="geometry" />
        </mxCell>
        <mxCell id="3VRAeIj3tUrWjSmLoF6Z-59" value="" style="edgeStyle=orthogonalEdgeStyle;rounded=0;orthogonalLoop=1;jettySize=auto;html=1;fontFamily=Times New Roman;fontSize=16;" parent="1" source="3VRAeIj3tUrWjSmLoF6Z-34" target="3VRAeIj3tUrWjSmLoF6Z-58" edge="1">
          <mxGeometry relative="1" as="geometry" />
        </mxCell>
        <mxCell id="3VRAeIj3tUrWjSmLoF6Z-34" value="Modelamiento en Hec- HMS" style="rounded=0;whiteSpace=wrap;html=1;fillColor=#B3B3B3;fontFamily=Times New Roman;fontSize=16;" parent="1" vertex="1">
          <mxGeometry x="465" y="700" width="120" height="60" as="geometry" />
        </mxCell>
        <mxCell id="3VRAeIj3tUrWjSmLoF6Z-41" value="" style="edgeStyle=orthogonalEdgeStyle;rounded=0;orthogonalLoop=1;jettySize=auto;html=1;fontFamily=Times New Roman;fontSize=16;" parent="1" source="3VRAeIj3tUrWjSmLoF6Z-36" target="3VRAeIj3tUrWjSmLoF6Z-40" edge="1">
          <mxGeometry relative="1" as="geometry" />
        </mxCell>
        <mxCell id="3VRAeIj3tUrWjSmLoF6Z-51" style="edgeStyle=orthogonalEdgeStyle;rounded=0;orthogonalLoop=1;jettySize=auto;html=1;entryX=0.75;entryY=0;entryDx=0;entryDy=0;exitX=1;exitY=0.5;exitDx=0;exitDy=0;fontFamily=Times New Roman;fontSize=16;" parent="1" source="3VRAeIj3tUrWjSmLoF6Z-36" target="3VRAeIj3tUrWjSmLoF6Z-50" edge="1">
          <mxGeometry relative="1" as="geometry" />
        </mxCell>
        <mxCell id="3VRAeIj3tUrWjSmLoF6Z-36" value="Elaboración de cuenca de captación hasta el la localidad de Araconta" style="rounded=0;whiteSpace=wrap;html=1;fillColor=none;fontColor=#000000;fontFamily=Times New Roman;fontSize=16;" parent="1" vertex="1">
          <mxGeometry x="530" y="83" width="160" height="78" as="geometry" />
        </mxCell>
        <mxCell id="3VRAeIj3tUrWjSmLoF6Z-38" style="edgeStyle=orthogonalEdgeStyle;rounded=0;orthogonalLoop=1;jettySize=auto;html=1;entryX=0;entryY=0.5;entryDx=0;entryDy=0;fontFamily=Times New Roman;fontSize=16;" parent="1" source="3VRAeIj3tUrWjSmLoF6Z-37" target="3VRAeIj3tUrWjSmLoF6Z-36" edge="1">
          <mxGeometry relative="1" as="geometry" />
        </mxCell>
        <mxCell id="3VRAeIj3tUrWjSmLoF6Z-37" value="Modelo de &lt;br style=&quot;font-size: 16px;&quot;&gt;elevación digital &lt;br style=&quot;font-size: 16px;&quot;&gt;Hi-Res" style="shape=parallelogram;perimeter=parallelogramPerimeter;whiteSpace=wrap;html=1;fixedSize=1;fillColor=#E6E6E6;fontFamily=Times New Roman;fontSize=16;" parent="1" vertex="1">
          <mxGeometry x="375" y="88" width="130" height="68" as="geometry" />
        </mxCell>
        <mxCell id="3VRAeIj3tUrWjSmLoF6Z-46" style="edgeStyle=orthogonalEdgeStyle;rounded=0;orthogonalLoop=1;jettySize=auto;html=1;entryX=1;entryY=0.5;entryDx=0;entryDy=0;fontFamily=Times New Roman;fontSize=16;" parent="1" source="3VRAeIj3tUrWjSmLoF6Z-40" target="3VRAeIj3tUrWjSmLoF6Z-42" edge="1">
          <mxGeometry relative="1" as="geometry" />
        </mxCell>
        <mxCell id="3VRAeIj3tUrWjSmLoF6Z-48" value="" style="edgeStyle=orthogonalEdgeStyle;rounded=0;orthogonalLoop=1;jettySize=auto;html=1;fontFamily=Times New Roman;fontSize=16;" parent="1" source="3VRAeIj3tUrWjSmLoF6Z-40" target="3VRAeIj3tUrWjSmLoF6Z-47" edge="1">
          <mxGeometry relative="1" as="geometry" />
        </mxCell>
        <mxCell id="3VRAeIj3tUrWjSmLoF6Z-40" value="Determinación de&lt;br style=&quot;font-size: 16px;&quot;&gt;&amp;nbsp;Rios y subcuencas" style="whiteSpace=wrap;html=1;rounded=0;fontFamily=Times New Roman;fontSize=16;" parent="1" vertex="1">
          <mxGeometry x="550" y="192" width="120" height="60" as="geometry" />
        </mxCell>
        <mxCell id="K1i-vkmHz3E5f6IHQn4M-3" style="edgeStyle=orthogonalEdgeStyle;rounded=0;orthogonalLoop=1;jettySize=auto;html=1;entryX=1;entryY=0.5;entryDx=0;entryDy=0;fontFamily=Times New Roman;fontSize=16;" parent="1" source="3VRAeIj3tUrWjSmLoF6Z-42" target="K1i-vkmHz3E5f6IHQn4M-1" edge="1">
          <mxGeometry relative="1" as="geometry" />
        </mxCell>
        <mxCell id="3VRAeIj3tUrWjSmLoF6Z-42" value="Exportación de las subcuencas" style="whiteSpace=wrap;html=1;rounded=0;fontFamily=Times New Roman;fontSize=16;" parent="1" vertex="1">
          <mxGeometry x="380" y="192" width="120" height="60" as="geometry" />
        </mxCell>
        <mxCell id="3VRAeIj3tUrWjSmLoF6Z-49" style="edgeStyle=orthogonalEdgeStyle;rounded=0;orthogonalLoop=1;jettySize=auto;html=1;fontFamily=Times New Roman;exitX=0;exitY=0.5;exitDx=0;exitDy=0;fontSize=16;" parent="1" source="3VRAeIj3tUrWjSmLoF6Z-47" target="3VRAeIj3tUrWjSmLoF6Z-34" edge="1">
          <mxGeometry relative="1" as="geometry">
            <Array as="points">
              <mxPoint x="430" y="342" />
              <mxPoint x="430" y="610" />
              <mxPoint x="500" y="610" />
            </Array>
          </mxGeometry>
        </mxCell>
        <mxCell id="3VRAeIj3tUrWjSmLoF6Z-47" value="Preparación de información en Hec-GeoHMS" style="whiteSpace=wrap;html=1;rounded=0;fontFamily=Times New Roman;fontSize=16;" parent="1" vertex="1">
          <mxGeometry x="527.5" y="312" width="165" height="60" as="geometry" />
        </mxCell>
        <mxCell id="3VRAeIj3tUrWjSmLoF6Z-56" style="edgeStyle=orthogonalEdgeStyle;rounded=0;orthogonalLoop=1;jettySize=auto;html=1;entryX=1;entryY=0.5;entryDx=0;entryDy=0;fontFamily=Times New Roman;fontSize=16;" parent="1" source="3VRAeIj3tUrWjSmLoF6Z-50" target="3VRAeIj3tUrWjSmLoF6Z-47" edge="1">
          <mxGeometry relative="1" as="geometry" />
        </mxCell>
        <mxCell id="3VRAeIj3tUrWjSmLoF6Z-50" value="Elaboración de la curva número" style="rounded=0;whiteSpace=wrap;html=1;fontFamily=Times New Roman;fontSize=16;" parent="1" vertex="1">
          <mxGeometry x="660" y="482" width="120" height="60" as="geometry" />
        </mxCell>
        <mxCell id="3VRAeIj3tUrWjSmLoF6Z-53" style="edgeStyle=orthogonalEdgeStyle;rounded=0;orthogonalLoop=1;jettySize=auto;html=1;entryX=0;entryY=0.25;entryDx=0;entryDy=0;fontFamily=Times New Roman;fontSize=16;" parent="1" source="3VRAeIj3tUrWjSmLoF6Z-52" target="3VRAeIj3tUrWjSmLoF6Z-50" edge="1">
          <mxGeometry relative="1" as="geometry" />
        </mxCell>
        <mxCell id="3VRAeIj3tUrWjSmLoF6Z-52" value="Mapa de &lt;br style=&quot;font-size: 16px;&quot;&gt;Cobertura &lt;br style=&quot;font-size: 16px;&quot;&gt;vegetal" style="shape=parallelogram;perimeter=parallelogramPerimeter;whiteSpace=wrap;html=1;fixedSize=1;fillColor=#E6E6E6;fontFamily=Times New Roman;fontSize=16;" parent="1" vertex="1">
          <mxGeometry x="500" y="442" width="120" height="60" as="geometry" />
        </mxCell>
        <mxCell id="3VRAeIj3tUrWjSmLoF6Z-55" style="edgeStyle=orthogonalEdgeStyle;rounded=0;orthogonalLoop=1;jettySize=auto;html=1;entryX=0;entryY=0.75;entryDx=0;entryDy=0;fontFamily=Times New Roman;fontSize=16;" parent="1" source="3VRAeIj3tUrWjSmLoF6Z-54" target="3VRAeIj3tUrWjSmLoF6Z-50" edge="1">
          <mxGeometry relative="1" as="geometry" />
        </mxCell>
        <mxCell id="3VRAeIj3tUrWjSmLoF6Z-54" value="Mapa de &lt;br style=&quot;font-size: 16px;&quot;&gt;Suelos" style="shape=parallelogram;perimeter=parallelogramPerimeter;whiteSpace=wrap;html=1;fixedSize=1;fillColor=#E6E6E6;fontFamily=Times New Roman;fontSize=16;" parent="1" vertex="1">
          <mxGeometry x="490" y="522" width="120" height="60" as="geometry" />
        </mxCell>
        <mxCell id="s36QY2iIZomX1g9JRoiT-4" style="edgeStyle=orthogonalEdgeStyle;rounded=0;orthogonalLoop=1;jettySize=auto;html=1;entryX=0;entryY=0.5;entryDx=0;entryDy=0;fontFamily=Times New Roman;fontSize=16;" parent="1" source="3VRAeIj3tUrWjSmLoF6Z-58" target="s36QY2iIZomX1g9JRoiT-3" edge="1">
          <mxGeometry relative="1" as="geometry">
            <Array as="points">
              <mxPoint x="780" y="868" />
              <mxPoint x="780" y="640" />
            </Array>
          </mxGeometry>
        </mxCell>
        <mxCell id="3VRAeIj3tUrWjSmLoF6Z-58" value="Obtención de caudales" style="whiteSpace=wrap;html=1;rounded=0;fontFamily=Times New Roman;fontSize=16;" parent="1" vertex="1">
          <mxGeometry x="635" y="837.5" width="120" height="60" as="geometry" />
        </mxCell>
        <mxCell id="3VRAeIj3tUrWjSmLoF6Z-61" style="edgeStyle=orthogonalEdgeStyle;rounded=0;orthogonalLoop=1;jettySize=auto;html=1;entryX=0.5;entryY=1;entryDx=0;entryDy=0;fontFamily=Times New Roman;fontSize=16;" parent="1" source="3VRAeIj3tUrWjSmLoF6Z-60" target="3VRAeIj3tUrWjSmLoF6Z-34" edge="1">
          <mxGeometry relative="1" as="geometry" />
        </mxCell>
        <mxCell id="3VRAeIj3tUrWjSmLoF6Z-60" value="Parámetros de Número de Curva&lt;br style=&quot;font-size: 16px;&quot;&gt;(iniciales)" style="shape=parallelogram;perimeter=parallelogramPerimeter;whiteSpace=wrap;html=1;fixedSize=1;fontFamily=Times New Roman;fontSize=16;" parent="1" vertex="1">
          <mxGeometry x="453.75" y="837.5" width="142.5" height="72.5" as="geometry" />
        </mxCell>
        <mxCell id="K1i-vkmHz3E5f6IHQn4M-4" style="edgeStyle=orthogonalEdgeStyle;rounded=0;orthogonalLoop=1;jettySize=auto;html=1;entryX=0.5;entryY=1;entryDx=0;entryDy=0;fontFamily=Times New Roman;fontSize=16;" parent="1" source="K1i-vkmHz3E5f6IHQn4M-1" target="K1i-vkmHz3E5f6IHQn4M-2" edge="1">
          <mxGeometry relative="1" as="geometry" />
        </mxCell>
        <mxCell id="K1i-vkmHz3E5f6IHQn4M-1" value="Generación de los centroides de cada subcuenca" style="rounded=0;whiteSpace=wrap;html=1;fontFamily=Times New Roman;fontSize=16;" parent="1" vertex="1">
          <mxGeometry x="205" y="160" width="120" height="60" as="geometry" />
        </mxCell>
        <mxCell id="K1i-vkmHz3E5f6IHQn4M-5" style="edgeStyle=orthogonalEdgeStyle;rounded=0;orthogonalLoop=1;jettySize=auto;html=1;entryX=0.5;entryY=0;entryDx=0;entryDy=0;exitX=0.5;exitY=0;exitDx=0;exitDy=0;fontFamily=Times New Roman;fontSize=16;" parent="1" source="K1i-vkmHz3E5f6IHQn4M-2" target="3VRAeIj3tUrWjSmLoF6Z-5" edge="1">
          <mxGeometry relative="1" as="geometry" />
        </mxCell>
        <mxCell id="K1i-vkmHz3E5f6IHQn4M-2" value="Proyección a coordenadas geográficas" style="rounded=0;whiteSpace=wrap;html=1;fontFamily=Times New Roman;fontSize=16;" parent="1" vertex="1">
          <mxGeometry x="205" y="60" width="120" height="60" as="geometry" />
        </mxCell>
        <mxCell id="K1i-vkmHz3E5f6IHQn4M-8" style="edgeStyle=orthogonalEdgeStyle;rounded=0;orthogonalLoop=1;jettySize=auto;html=1;entryX=0.5;entryY=0;entryDx=0;entryDy=0;fontFamily=Times New Roman;fontSize=16;" parent="1" source="K1i-vkmHz3E5f6IHQn4M-6" target="3VRAeIj3tUrWjSmLoF6Z-22" edge="1">
          <mxGeometry relative="1" as="geometry" />
        </mxCell>
        <mxCell id="K1i-vkmHz3E5f6IHQn4M-6" value="Elección de la distribución de probabilidad con menor error cuadrático medio" style="rounded=0;whiteSpace=wrap;html=1;fontFamily=Times New Roman;fontSize=16;" parent="1" vertex="1">
          <mxGeometry x="-50" y="620" width="150" height="98.75" as="geometry" />
        </mxCell>
        <mxCell id="s36QY2iIZomX1g9JRoiT-16" style="edgeStyle=orthogonalEdgeStyle;rounded=0;orthogonalLoop=1;jettySize=auto;html=1;entryX=0.5;entryY=0;entryDx=0;entryDy=0;fontFamily=Times New Roman;fontSize=16;" parent="1" source="s36QY2iIZomX1g9JRoiT-3" target="s36QY2iIZomX1g9JRoiT-15" edge="1">
          <mxGeometry relative="1" as="geometry" />
        </mxCell>
        <mxCell id="s36QY2iIZomX1g9JRoiT-3" value="Modelamiento en Hec-RAS" style="rounded=0;whiteSpace=wrap;html=1;fillColor=#B3B3B3;fontFamily=Times New Roman;fontSize=16;" parent="1" vertex="1">
          <mxGeometry x="948.38" y="610" width="120" height="60" as="geometry" />
        </mxCell>
        <mxCell id="EYEnycelfZiuUGJGCS-H-14" style="edgeStyle=orthogonalEdgeStyle;rounded=0;orthogonalLoop=1;jettySize=auto;html=1;entryX=1;entryY=0.25;entryDx=0;entryDy=0;fontFamily=Times New Roman;fontSize=16;" parent="1" source="s36QY2iIZomX1g9JRoiT-7" target="s36QY2iIZomX1g9JRoiT-3" edge="1">
          <mxGeometry relative="1" as="geometry">
            <Array as="points">
              <mxPoint x="1088.88" y="564.75" />
              <mxPoint x="1088.88" y="624.75" />
            </Array>
          </mxGeometry>
        </mxCell>
        <mxCell id="s36QY2iIZomX1g9JRoiT-7" value="Coeficiente de rugosidad de Mannig&#39;s" style="shape=parallelogram;perimeter=parallelogramPerimeter;whiteSpace=wrap;html=1;fixedSize=1;fillColor=#E6E6E6;fontFamily=Times New Roman;fontSize=16;" parent="1" vertex="1">
          <mxGeometry x="1101.69" y="530" width="133.38" height="65" as="geometry" />
        </mxCell>
        <mxCell id="s36QY2iIZomX1g9JRoiT-10" style="edgeStyle=orthogonalEdgeStyle;rounded=0;orthogonalLoop=1;jettySize=auto;html=1;entryX=0.75;entryY=0;entryDx=0;entryDy=0;exitX=0;exitY=0.5;exitDx=0;exitDy=0;fontFamily=Times New Roman;fontSize=16;" parent="1" source="s36QY2iIZomX1g9JRoiT-9" target="3VRAeIj3tUrWjSmLoF6Z-34" edge="1">
          <mxGeometry relative="1" as="geometry">
            <mxPoint x="590" y="661" as="sourcePoint" />
            <Array as="points">
              <mxPoint x="555" y="610" />
            </Array>
          </mxGeometry>
        </mxCell>
        <mxCell id="s36QY2iIZomX1g9JRoiT-9" value="Caudales &lt;br style=&quot;font-size: 16px;&quot;&gt;para calibración" style="shape=parallelogram;perimeter=parallelogramPerimeter;whiteSpace=wrap;html=1;fixedSize=1;fillColor=#E6E6E6;fontFamily=Times New Roman;fontSize=16;" parent="1" vertex="1">
          <mxGeometry x="625" y="582" width="140" height="60" as="geometry" />
        </mxCell>
        <mxCell id="s36QY2iIZomX1g9JRoiT-12" style="edgeStyle=orthogonalEdgeStyle;rounded=0;orthogonalLoop=1;jettySize=auto;html=1;entryX=1;entryY=0.75;entryDx=0;entryDy=0;exitX=0;exitY=0.5;exitDx=0;exitDy=0;fontFamily=Times New Roman;fontSize=16;" parent="1" source="s36QY2iIZomX1g9JRoiT-11" target="s36QY2iIZomX1g9JRoiT-3" edge="1">
          <mxGeometry relative="1" as="geometry">
            <Array as="points">
              <mxPoint x="1085.88" y="718.75" />
              <mxPoint x="1085.88" y="654.75" />
            </Array>
          </mxGeometry>
        </mxCell>
        <mxCell id="s36QY2iIZomX1g9JRoiT-11" value="Coeficientes de contracción y expansión" style="shape=parallelogram;perimeter=parallelogramPerimeter;whiteSpace=wrap;html=1;fixedSize=1;fillColor=#E6E6E6;fontFamily=Times New Roman;fontSize=16;" parent="1" vertex="1">
          <mxGeometry x="1086.88" y="688.75" width="135.88" height="61.25" as="geometry" />
        </mxCell>
        <mxCell id="s36QY2iIZomX1g9JRoiT-15" value="Obtención de área inundable y secciones transversales" style="rounded=1;whiteSpace=wrap;html=1;fillColor=#1A1A1A;fontColor=#FFFFFF;fontFamily=Times New Roman;arcSize=50;fontSize=16;" parent="1" vertex="1">
          <mxGeometry x="927.26" y="768.75" width="161.62" height="60" as="geometry" />
        </mxCell>
        <mxCell id="EYEnycelfZiuUGJGCS-H-3" style="edgeStyle=orthogonalEdgeStyle;rounded=0;orthogonalLoop=1;jettySize=auto;html=1;fontFamily=Times New Roman;fontSize=16;" parent="1" source="EYEnycelfZiuUGJGCS-H-2" target="s36QY2iIZomX1g9JRoiT-3" edge="1">
          <mxGeometry relative="1" as="geometry" />
        </mxCell>
        <mxCell id="EYEnycelfZiuUGJGCS-H-2" value="Preparación de información en Hec-GeoRAS" style="rounded=0;whiteSpace=wrap;html=1;fontFamily=Times New Roman;fontSize=16;" parent="1" vertex="1">
          <mxGeometry x="928.88" y="420" width="160" height="61.25" as="geometry" />
        </mxCell>
        <mxCell id="EYEnycelfZiuUGJGCS-H-13" style="edgeStyle=orthogonalEdgeStyle;rounded=0;orthogonalLoop=1;jettySize=auto;html=1;exitX=0.5;exitY=1;exitDx=0;exitDy=0;fontFamily=Times New Roman;fontSize=16;" parent="1" source="EYEnycelfZiuUGJGCS-H-5" target="EYEnycelfZiuUGJGCS-H-2" edge="1">
          <mxGeometry relative="1" as="geometry" />
        </mxCell>
        <mxCell id="EYEnycelfZiuUGJGCS-H-5" value="Levantamiento topográfico por fotogrametría" style="rounded=0;whiteSpace=wrap;html=1;fontFamily=Times New Roman;fontSize=16;fillColor=#B3B3B3;" parent="1" vertex="1">
          <mxGeometry x="948.63" y="253.75" width="120" height="60" as="geometry" />
        </mxCell>
        <mxCell id="EYEnycelfZiuUGJGCS-H-11" style="edgeStyle=orthogonalEdgeStyle;rounded=0;orthogonalLoop=1;jettySize=auto;html=1;entryX=0;entryY=0.5;entryDx=0;entryDy=0;exitX=0.5;exitY=1;exitDx=0;exitDy=0;fontFamily=Times New Roman;fontSize=16;" parent="1" source="EYEnycelfZiuUGJGCS-H-8" target="EYEnycelfZiuUGJGCS-H-5" edge="1">
          <mxGeometry relative="1" as="geometry" />
        </mxCell>
        <mxCell id="EYEnycelfZiuUGJGCS-H-8" value="Puntos de control" style="shape=parallelogram;perimeter=parallelogramPerimeter;whiteSpace=wrap;html=1;fixedSize=1;fillColor=#E6E6E6;fontFamily=Times New Roman;fontSize=16;" parent="1" vertex="1">
          <mxGeometry x="826.63" y="170" width="143.37" height="63.75" as="geometry" />
        </mxCell>
        <mxCell id="EYEnycelfZiuUGJGCS-H-12" style="edgeStyle=orthogonalEdgeStyle;rounded=0;orthogonalLoop=1;jettySize=auto;html=1;entryX=1;entryY=0.5;entryDx=0;entryDy=0;exitX=0.5;exitY=1;exitDx=0;exitDy=0;fontFamily=Times New Roman;fontSize=16;" parent="1" source="EYEnycelfZiuUGJGCS-H-10" target="EYEnycelfZiuUGJGCS-H-5" edge="1">
          <mxGeometry relative="1" as="geometry" />
        </mxCell>
        <mxCell id="EYEnycelfZiuUGJGCS-H-10" value="Fotografía&lt;br style=&quot;font-size: 16px;&quot;&gt;&amp;nbsp;aérea con dron" style="shape=parallelogram;perimeter=parallelogramPerimeter;whiteSpace=wrap;html=1;fixedSize=1;fillColor=#E6E6E6;fontFamily=Times New Roman;fontSize=16;" parent="1" vertex="1">
          <mxGeometry x="1078.13" y="173.75" width="131.87" height="60" as="geometry" />
        </mxCell>
        <mxCell id="npEJbkAN3SEkmpXRU5l9-2" value="ALGORITMO PROGRAMADO EN R" style="text;html=1;strokeColor=none;fillColor=none;align=center;verticalAlign=middle;whiteSpace=wrap;rounded=0;fontColor=#000000;fontStyle=1;rotation=270;fontFamily=Times New Roman;fontSize=16;" parent="1" vertex="1">
          <mxGeometry x="-168.75" y="411.25" width="287.5" height="30" as="geometry" />
        </mxCell>
        <mxCell id="npEJbkAN3SEkmpXRU5l9-11" style="edgeStyle=orthogonalEdgeStyle;rounded=0;orthogonalLoop=1;jettySize=auto;html=1;entryX=0.5;entryY=0;entryDx=0;entryDy=0;fontFamily=Times New Roman;fontSize=16;fontColor=#000000;" parent="1" source="npEJbkAN3SEkmpXRU5l9-6" target="3VRAeIj3tUrWjSmLoF6Z-36" edge="1">
          <mxGeometry relative="1" as="geometry" />
        </mxCell>
        <mxCell id="npEJbkAN3SEkmpXRU5l9-6" value="INICIO" style="ellipse;whiteSpace=wrap;html=1;fontFamily=Times New Roman;fontSize=16;fontColor=#FFFFFF;fillColor=#1A1A1A;" parent="1" vertex="1">
          <mxGeometry x="550" y="20" width="120" height="40" as="geometry" />
        </mxCell>
      </root>
    </mxGraphModel>
  </diagram>
</mxfile>
